<mxfile host="app.diagrams.net" agent="Mozilla/5.0 (Windows NT 10.0; Win64; x64) AppleWebKit/537.36 (KHTML, like Gecko) Chrome/140.0.0.0 Safari/537.36" version="28.2.3">
  <diagram name="PÃ¡gina-1" id="S7ulFuD1PEKwOBpK4tIE">
    <mxGraphModel dx="1105" dy="1642" grid="1" gridSize="10" guides="1" tooltips="1" connect="1" arrows="1" fold="1" page="1" pageScale="1" pageWidth="827" pageHeight="1169" math="0" shadow="0">
      <root>
        <mxCell id="0" />
        <mxCell id="1" parent="0" />
        <mxCell id="aFm3BQwA2hD5-ZLHfqn7-1" value="Alumno" style="whiteSpace=wrap;html=1;align=center;" vertex="1" parent="1">
          <mxGeometry x="210" y="170" width="100" height="40" as="geometry" />
        </mxCell>
        <mxCell id="aFm3BQwA2hD5-ZLHfqn7-2" value="Profesor" style="whiteSpace=wrap;html=1;align=center;" vertex="1" parent="1">
          <mxGeometry x="370" y="170" width="100" height="40" as="geometry" />
        </mxCell>
        <mxCell id="aFm3BQwA2hD5-ZLHfqn7-19" style="edgeStyle=none;shape=connector;rounded=0;orthogonalLoop=1;jettySize=auto;html=1;exitX=1;exitY=0.5;exitDx=0;exitDy=0;entryX=0;entryY=1;entryDx=0;entryDy=0;strokeColor=default;align=center;verticalAlign=middle;fontFamily=Helvetica;fontSize=11;fontColor=default;labelBackgroundColor=default;endArrow=none;" edge="1" parent="1" source="aFm3BQwA2hD5-ZLHfqn7-3" target="aFm3BQwA2hD5-ZLHfqn7-11">
          <mxGeometry relative="1" as="geometry" />
        </mxCell>
        <mxCell id="aFm3BQwA2hD5-ZLHfqn7-23" style="edgeStyle=none;shape=connector;rounded=0;orthogonalLoop=1;jettySize=auto;html=1;exitX=0.5;exitY=0;exitDx=0;exitDy=0;entryX=0.5;entryY=1;entryDx=0;entryDy=0;strokeColor=default;align=center;verticalAlign=middle;fontFamily=Helvetica;fontSize=11;fontColor=default;labelBackgroundColor=default;endArrow=none;" edge="1" parent="1" source="aFm3BQwA2hD5-ZLHfqn7-3" target="aFm3BQwA2hD5-ZLHfqn7-10">
          <mxGeometry relative="1" as="geometry" />
        </mxCell>
        <mxCell id="aFm3BQwA2hD5-ZLHfqn7-28" style="edgeStyle=none;shape=connector;rounded=0;orthogonalLoop=1;jettySize=auto;html=1;exitX=1;exitY=0.5;exitDx=0;exitDy=0;entryX=0;entryY=0.5;entryDx=0;entryDy=0;strokeColor=default;align=center;verticalAlign=middle;fontFamily=Helvetica;fontSize=11;fontColor=default;labelBackgroundColor=default;endArrow=none;" edge="1" parent="1" source="aFm3BQwA2hD5-ZLHfqn7-3" target="aFm3BQwA2hD5-ZLHfqn7-26">
          <mxGeometry relative="1" as="geometry" />
        </mxCell>
        <mxCell id="aFm3BQwA2hD5-ZLHfqn7-30" style="edgeStyle=none;shape=connector;rounded=0;orthogonalLoop=1;jettySize=auto;html=1;exitX=1;exitY=0.5;exitDx=0;exitDy=0;entryX=0;entryY=0.5;entryDx=0;entryDy=0;strokeColor=default;align=center;verticalAlign=middle;fontFamily=Helvetica;fontSize=11;fontColor=default;labelBackgroundColor=default;endArrow=none;" edge="1" parent="1" source="aFm3BQwA2hD5-ZLHfqn7-3" target="aFm3BQwA2hD5-ZLHfqn7-29">
          <mxGeometry relative="1" as="geometry" />
        </mxCell>
        <mxCell id="aFm3BQwA2hD5-ZLHfqn7-3" value="Persona" style="whiteSpace=wrap;html=1;align=center;" vertex="1" parent="1">
          <mxGeometry x="290" y="30" width="100" height="40" as="geometry" />
        </mxCell>
        <mxCell id="aFm3BQwA2hD5-ZLHfqn7-7" value="" style="endArrow=none;html=1;rounded=0;strokeColor=default;align=center;verticalAlign=middle;fontFamily=Helvetica;fontSize=11;fontColor=default;labelBackgroundColor=default;exitX=0.5;exitY=0;exitDx=0;exitDy=0;entryX=0.5;entryY=0;entryDx=0;entryDy=0;" edge="1" parent="1" source="aFm3BQwA2hD5-ZLHfqn7-1" target="aFm3BQwA2hD5-ZLHfqn7-2">
          <mxGeometry relative="1" as="geometry">
            <mxPoint x="330" y="250" as="sourcePoint" />
            <mxPoint x="490" y="250" as="targetPoint" />
            <Array as="points">
              <mxPoint x="260" y="130" />
              <mxPoint x="340" y="130" />
              <mxPoint x="420" y="130" />
            </Array>
          </mxGeometry>
        </mxCell>
        <mxCell id="aFm3BQwA2hD5-ZLHfqn7-8" value="" style="endArrow=none;html=1;rounded=0;strokeColor=default;align=center;verticalAlign=middle;fontFamily=Helvetica;fontSize=11;fontColor=default;labelBackgroundColor=default;exitX=0.5;exitY=1;exitDx=0;exitDy=0;" edge="1" parent="1" source="aFm3BQwA2hD5-ZLHfqn7-3">
          <mxGeometry relative="1" as="geometry">
            <mxPoint x="330" y="250" as="sourcePoint" />
            <mxPoint x="340" y="130" as="targetPoint" />
          </mxGeometry>
        </mxCell>
        <mxCell id="aFm3BQwA2hD5-ZLHfqn7-24" style="edgeStyle=none;shape=connector;rounded=0;orthogonalLoop=1;jettySize=auto;html=1;exitX=0.5;exitY=1;exitDx=0;exitDy=0;entryX=0.5;entryY=0;entryDx=0;entryDy=0;strokeColor=default;align=center;verticalAlign=middle;fontFamily=Helvetica;fontSize=11;fontColor=default;labelBackgroundColor=default;endArrow=none;" edge="1" parent="1" source="aFm3BQwA2hD5-ZLHfqn7-9" target="aFm3BQwA2hD5-ZLHfqn7-3">
          <mxGeometry relative="1" as="geometry" />
        </mxCell>
        <mxCell id="aFm3BQwA2hD5-ZLHfqn7-9" value="nombre" style="ellipse;whiteSpace=wrap;html=1;align=center;fontFamily=Helvetica;fontSize=11;fontColor=default;labelBackgroundColor=default;" vertex="1" parent="1">
          <mxGeometry x="250" y="-50" width="50" height="30" as="geometry" />
        </mxCell>
        <mxCell id="aFm3BQwA2hD5-ZLHfqn7-10" value="apellidos" style="ellipse;whiteSpace=wrap;html=1;align=center;fontFamily=Helvetica;fontSize=11;fontColor=default;labelBackgroundColor=default;" vertex="1" parent="1">
          <mxGeometry x="300" y="-85" width="65" height="30" as="geometry" />
        </mxCell>
        <mxCell id="aFm3BQwA2hD5-ZLHfqn7-20" style="edgeStyle=none;shape=connector;rounded=0;orthogonalLoop=1;jettySize=auto;html=1;exitX=1;exitY=0.5;exitDx=0;exitDy=0;entryX=0;entryY=0.5;entryDx=0;entryDy=0;strokeColor=default;align=center;verticalAlign=middle;fontFamily=Helvetica;fontSize=11;fontColor=default;labelBackgroundColor=default;endArrow=none;" edge="1" parent="1" target="aFm3BQwA2hD5-ZLHfqn7-12">
          <mxGeometry relative="1" as="geometry">
            <mxPoint x="531.22" y="-40" as="sourcePoint" />
          </mxGeometry>
        </mxCell>
        <mxCell id="aFm3BQwA2hD5-ZLHfqn7-21" style="edgeStyle=none;shape=connector;rounded=0;orthogonalLoop=1;jettySize=auto;html=1;exitX=1;exitY=0.5;exitDx=0;exitDy=0;entryX=0;entryY=0.5;entryDx=0;entryDy=0;strokeColor=default;align=center;verticalAlign=middle;fontFamily=Helvetica;fontSize=11;fontColor=default;labelBackgroundColor=default;endArrow=none;" edge="1" parent="1" target="aFm3BQwA2hD5-ZLHfqn7-13">
          <mxGeometry relative="1" as="geometry">
            <mxPoint x="531.22" y="-40" as="sourcePoint" />
          </mxGeometry>
        </mxCell>
        <mxCell id="aFm3BQwA2hD5-ZLHfqn7-22" style="edgeStyle=none;shape=connector;rounded=0;orthogonalLoop=1;jettySize=auto;html=1;exitX=1;exitY=0.5;exitDx=0;exitDy=0;entryX=0;entryY=0.5;entryDx=0;entryDy=0;strokeColor=default;align=center;verticalAlign=middle;fontFamily=Helvetica;fontSize=11;fontColor=default;labelBackgroundColor=default;endArrow=none;" edge="1" parent="1" target="aFm3BQwA2hD5-ZLHfqn7-14">
          <mxGeometry relative="1" as="geometry">
            <mxPoint x="531.22" y="-40" as="sourcePoint" />
          </mxGeometry>
        </mxCell>
        <mxCell id="aFm3BQwA2hD5-ZLHfqn7-27" style="edgeStyle=none;shape=connector;rounded=0;orthogonalLoop=1;jettySize=auto;html=1;exitX=1;exitY=0.5;exitDx=0;exitDy=0;strokeColor=default;align=center;verticalAlign=middle;fontFamily=Helvetica;fontSize=11;fontColor=default;labelBackgroundColor=default;endArrow=none;" edge="1" parent="1" source="aFm3BQwA2hD5-ZLHfqn7-11">
          <mxGeometry relative="1" as="geometry">
            <mxPoint x="530" y="-40" as="targetPoint" />
          </mxGeometry>
        </mxCell>
        <mxCell id="aFm3BQwA2hD5-ZLHfqn7-11" value="direccion" style="ellipse;whiteSpace=wrap;html=1;align=center;fontFamily=Helvetica;fontSize=11;fontColor=default;labelBackgroundColor=default;" vertex="1" parent="1">
          <mxGeometry x="450" y="-55" width="70" height="40" as="geometry" />
        </mxCell>
        <mxCell id="aFm3BQwA2hD5-ZLHfqn7-12" value="nro" style="ellipse;whiteSpace=wrap;html=1;align=center;fontFamily=Helvetica;fontSize=11;fontColor=default;labelBackgroundColor=default;" vertex="1" parent="1">
          <mxGeometry x="581.22" y="-110" width="40" height="30" as="geometry" />
        </mxCell>
        <mxCell id="aFm3BQwA2hD5-ZLHfqn7-13" value="cp" style="ellipse;whiteSpace=wrap;html=1;align=center;fontFamily=Helvetica;fontSize=11;fontColor=default;labelBackgroundColor=default;" vertex="1" parent="1">
          <mxGeometry x="581.22" y="-70" width="40" height="20" as="geometry" />
        </mxCell>
        <mxCell id="aFm3BQwA2hD5-ZLHfqn7-14" value="calle" style="ellipse;whiteSpace=wrap;html=1;align=center;fontFamily=Helvetica;fontSize=11;fontColor=default;labelBackgroundColor=default;" vertex="1" parent="1">
          <mxGeometry x="571.22" y="-40" width="60" height="30" as="geometry" />
        </mxCell>
        <mxCell id="aFm3BQwA2hD5-ZLHfqn7-25" style="edgeStyle=none;shape=connector;rounded=0;orthogonalLoop=1;jettySize=auto;html=1;exitX=0.5;exitY=1;exitDx=0;exitDy=0;entryX=0;entryY=0.5;entryDx=0;entryDy=0;strokeColor=default;align=center;verticalAlign=middle;fontFamily=Helvetica;fontSize=11;fontColor=default;labelBackgroundColor=default;endArrow=none;" edge="1" parent="1" source="aFm3BQwA2hD5-ZLHfqn7-17" target="aFm3BQwA2hD5-ZLHfqn7-3">
          <mxGeometry relative="1" as="geometry" />
        </mxCell>
        <mxCell id="aFm3BQwA2hD5-ZLHfqn7-17" value="dni" style="ellipse;whiteSpace=wrap;html=1;align=center;fontStyle=4;fontFamily=Helvetica;fontSize=11;fontColor=default;labelBackgroundColor=default;" vertex="1" parent="1">
          <mxGeometry x="180" y="-15" width="50" height="30" as="geometry" />
        </mxCell>
        <mxCell id="aFm3BQwA2hD5-ZLHfqn7-18" style="edgeStyle=none;shape=connector;rounded=0;orthogonalLoop=1;jettySize=auto;html=1;entryX=0.414;entryY=0.025;entryDx=0;entryDy=0;entryPerimeter=0;strokeColor=default;align=center;verticalAlign=middle;fontFamily=Helvetica;fontSize=11;fontColor=default;labelBackgroundColor=default;endArrow=none;" edge="1" parent="1">
          <mxGeometry relative="1" as="geometry">
            <mxPoint x="490.00459478581274" y="-59.68211651159345" as="sourcePoint" />
            <mxPoint x="490.20000000000005" y="-59" as="targetPoint" />
          </mxGeometry>
        </mxCell>
        <mxCell id="aFm3BQwA2hD5-ZLHfqn7-26" value="fechaNacimiento" style="ellipse;whiteSpace=wrap;html=1;align=center;fontFamily=Helvetica;fontSize=11;fontColor=default;labelBackgroundColor=default;" vertex="1" parent="1">
          <mxGeometry x="460" width="90" height="40" as="geometry" />
        </mxCell>
        <mxCell id="aFm3BQwA2hD5-ZLHfqn7-29" value="edad" style="ellipse;whiteSpace=wrap;html=1;align=center;dashed=1;fontFamily=Helvetica;fontSize=11;fontColor=default;labelBackgroundColor=default;" vertex="1" parent="1">
          <mxGeometry x="470" y="50" width="60" height="30" as="geometry" />
        </mxCell>
        <mxCell id="aFm3BQwA2hD5-ZLHfqn7-32" style="edgeStyle=none;shape=connector;rounded=0;orthogonalLoop=1;jettySize=auto;html=1;exitX=1;exitY=0.5;exitDx=0;exitDy=0;entryX=0;entryY=0.5;entryDx=0;entryDy=0;strokeColor=default;align=center;verticalAlign=middle;fontFamily=Helvetica;fontSize=11;fontColor=default;labelBackgroundColor=default;endArrow=none;" edge="1" parent="1" source="aFm3BQwA2hD5-ZLHfqn7-31" target="aFm3BQwA2hD5-ZLHfqn7-3">
          <mxGeometry relative="1" as="geometry" />
        </mxCell>
        <mxCell id="aFm3BQwA2hD5-ZLHfqn7-31" value="telefono" style="ellipse;shape=doubleEllipse;margin=3;whiteSpace=wrap;html=1;align=center;fontFamily=Helvetica;fontSize=11;fontColor=default;labelBackgroundColor=default;" vertex="1" parent="1">
          <mxGeometry x="110" y="15" width="70" height="40" as="geometry" />
        </mxCell>
        <mxCell id="aFm3BQwA2hD5-ZLHfqn7-34" style="edgeStyle=none;shape=connector;rounded=0;orthogonalLoop=1;jettySize=auto;html=1;exitX=0.5;exitY=1;exitDx=0;exitDy=0;entryX=0.5;entryY=0;entryDx=0;entryDy=0;strokeColor=default;align=center;verticalAlign=middle;fontFamily=Helvetica;fontSize=11;fontColor=default;labelBackgroundColor=default;endArrow=none;" edge="1" parent="1" source="aFm3BQwA2hD5-ZLHfqn7-33" target="aFm3BQwA2hD5-ZLHfqn7-3">
          <mxGeometry relative="1" as="geometry" />
        </mxCell>
        <mxCell id="aFm3BQwA2hD5-ZLHfqn7-33" value="poblacion" style="ellipse;whiteSpace=wrap;html=1;align=center;fontFamily=Helvetica;fontSize=11;fontColor=default;labelBackgroundColor=default;" vertex="1" parent="1">
          <mxGeometry x="365" y="-55" width="65" height="30" as="geometry" />
        </mxCell>
        <mxCell id="aFm3BQwA2hD5-ZLHfqn7-36" style="edgeStyle=none;shape=connector;rounded=0;orthogonalLoop=1;jettySize=auto;html=1;exitX=0.5;exitY=1;exitDx=0;exitDy=0;entryX=0;entryY=0.5;entryDx=0;entryDy=0;strokeColor=default;align=center;verticalAlign=middle;fontFamily=Helvetica;fontSize=11;fontColor=default;labelBackgroundColor=default;endArrow=none;" edge="1" parent="1" source="aFm3BQwA2hD5-ZLHfqn7-35" target="aFm3BQwA2hD5-ZLHfqn7-1">
          <mxGeometry relative="1" as="geometry" />
        </mxCell>
        <mxCell id="aFm3BQwA2hD5-ZLHfqn7-35" value="email" style="ellipse;whiteSpace=wrap;html=1;align=center;fontFamily=Helvetica;fontSize=11;fontColor=default;labelBackgroundColor=default;" vertex="1" parent="1">
          <mxGeometry x="90" y="130" width="65" height="30" as="geometry" />
        </mxCell>
      </root>
    </mxGraphModel>
  </diagram>
</mxfile>
